<mxfile host="app.diagrams.net" modified="2023-11-12T19:59:03.905Z" agent="Mozilla/5.0 (Windows NT 10.0; WOW64) AppleWebKit/537.36 (KHTML, like Gecko) Chrome/86.0.4240.198 Safari/537.36" etag="a1zjj2pQFju1Eka77Zf_" version="22.1.0" type="github">
  <diagram id="6a731a19-8d31-9384-78a2-239565b7b9f0" name="Page-1">
    <mxGraphModel dx="1195" dy="637" grid="1" gridSize="10" guides="1" tooltips="1" connect="1" arrows="1" fold="1" page="1" pageScale="1" pageWidth="1169" pageHeight="827" background="none" math="0" shadow="0">
      <root>
        <mxCell id="0" />
        <mxCell id="1" parent="0" />
        <mxCell id="1745" value="" style="edgeStyle=none;rounded=1;jumpStyle=none;html=1;shadow=0;labelBackgroundColor=none;startArrow=none;startFill=0;endArrow=classic;endFill=1;jettySize=auto;orthogonalLoop=1;strokeColor=#DDA15E;strokeWidth=3;fontFamily=Courier New;fontSize=16;fontColor=default;spacing=5;fontStyle=1;exitX=0.25;exitY=0;exitDx=0;exitDy=0;entryX=0.5;entryY=1;entryDx=0;entryDy=0;" parent="1" source="BuEvshFohfWNwcxQu9Q5-1786" target="1764" edge="1">
          <mxGeometry relative="1" as="geometry">
            <mxPoint x="584.9999999999998" y="208" as="sourcePoint" />
            <mxPoint x="536" y="130" as="targetPoint" />
          </mxGeometry>
        </mxCell>
        <mxCell id="1746" value="" style="edgeStyle=none;rounded=1;jumpStyle=none;html=1;shadow=0;labelBackgroundColor=none;startArrow=none;startFill=0;endArrow=classic;endFill=1;jettySize=auto;orthogonalLoop=1;strokeColor=#DDA15E;strokeWidth=3;fontFamily=Courier New;fontSize=16;fontColor=default;spacing=5;fontStyle=1" parent="1" source="1749" target="1771" edge="1">
          <mxGeometry relative="1" as="geometry" />
        </mxCell>
        <mxCell id="1747" value="" style="edgeStyle=none;rounded=1;jumpStyle=none;html=1;shadow=0;labelBackgroundColor=none;startArrow=none;startFill=0;endArrow=classic;endFill=1;jettySize=auto;orthogonalLoop=1;strokeColor=#DDA15E;strokeWidth=3;fontFamily=Courier New;fontSize=16;fontColor=default;spacing=5;fontStyle=1;entryX=0.5;entryY=0;entryDx=0;entryDy=0;" parent="1" source="1749" target="BuEvshFohfWNwcxQu9Q5-1799" edge="1">
          <mxGeometry relative="1" as="geometry">
            <mxPoint x="571.7728531855955" y="568.5" as="targetPoint" />
          </mxGeometry>
        </mxCell>
        <mxCell id="1748" value="" style="edgeStyle=none;rounded=1;jumpStyle=none;html=1;shadow=0;labelBackgroundColor=none;startArrow=none;startFill=0;endArrow=classic;endFill=1;jettySize=auto;orthogonalLoop=1;strokeColor=#DDA15E;strokeWidth=3;fontFamily=Courier New;fontSize=16;fontColor=default;spacing=5;fontStyle=1;exitX=0;exitY=0.5;exitDx=0;exitDy=0;" parent="1" source="1749" edge="1">
          <mxGeometry relative="1" as="geometry">
            <mxPoint x="500" y="460" as="sourcePoint" />
            <mxPoint x="440" y="560" as="targetPoint" />
          </mxGeometry>
        </mxCell>
        <mxCell id="1749" value="Kotlin" style="rounded=1;whiteSpace=wrap;html=1;shadow=0;labelBackgroundColor=none;strokeColor=none;strokeWidth=3;fillColor=#BC6C25;fontFamily=Courier New;fontSize=16;fontColor=#FEFAE0;align=center;fontStyle=1;spacing=5;arcSize=7;perimeterSpacing=2;" parent="1" vertex="1">
          <mxGeometry x="520" y="400" width="120" height="40" as="geometry" />
        </mxCell>
        <mxCell id="1764" value="Software" style="rounded=1;whiteSpace=wrap;html=1;shadow=0;labelBackgroundColor=none;strokeColor=none;strokeWidth=3;fillColor=#BC6C25;fontFamily=Courier New;fontSize=16;fontColor=#FEFAE0;align=center;spacing=5;fontStyle=1;arcSize=7;perimeterSpacing=2;" parent="1" vertex="1">
          <mxGeometry x="257.5" y="200" width="120" height="39.5" as="geometry" />
        </mxCell>
        <mxCell id="1765" value="Uber" style="rounded=1;whiteSpace=wrap;html=1;shadow=0;labelBackgroundColor=none;strokeColor=none;strokeWidth=3;fillColor=#BC6C25;fontFamily=Courier New;fontSize=16;fontColor=#FEFAE0;align=center;spacing=5;arcSize=7;perimeterSpacing=2;fontStyle=1" parent="1" vertex="1">
          <mxGeometry x="400" y="120" width="120" height="40.5" as="geometry" />
        </mxCell>
        <mxCell id="1766" value="" style="edgeStyle=none;rounded=1;jumpStyle=none;html=1;shadow=0;labelBackgroundColor=none;startArrow=none;startFill=0;endArrow=classic;endFill=1;jettySize=auto;orthogonalLoop=1;strokeColor=#DDA15E;strokeWidth=3;fontFamily=Courier New;fontSize=16;fontColor=default;spacing=5;fontStyle=1" parent="1" source="1764" target="1765" edge="1">
          <mxGeometry relative="1" as="geometry" />
        </mxCell>
        <mxCell id="1767" value="Netflix" style="rounded=1;whiteSpace=wrap;html=1;shadow=0;labelBackgroundColor=none;strokeColor=none;strokeWidth=3;fillColor=#BC6C25;fontFamily=Courier New;fontSize=16;fontColor=#FEFAE0;align=center;spacing=5;arcSize=7;perimeterSpacing=2;fontStyle=1" parent="1" vertex="1">
          <mxGeometry x="255" y="80" width="125" height="40" as="geometry" />
        </mxCell>
        <mxCell id="1768" value="" style="edgeStyle=none;rounded=1;jumpStyle=none;html=1;shadow=0;labelBackgroundColor=none;startArrow=none;startFill=0;endArrow=classic;endFill=1;jettySize=auto;orthogonalLoop=1;strokeColor=#DDA15E;strokeWidth=3;fontFamily=Courier New;fontSize=16;fontColor=default;spacing=5;fontStyle=1" parent="1" source="1764" target="1767" edge="1">
          <mxGeometry relative="1" as="geometry" />
        </mxCell>
        <mxCell id="1769" value="Evernote" style="rounded=1;whiteSpace=wrap;html=1;shadow=0;labelBackgroundColor=none;strokeColor=none;strokeWidth=3;fillColor=#BC6C25;fontFamily=Courier New;fontSize=16;fontColor=#FEFAE0;align=center;spacing=5;arcSize=7;perimeterSpacing=2;fontStyle=1" parent="1" vertex="1">
          <mxGeometry x="120" y="120" width="120" height="40.5" as="geometry" />
        </mxCell>
        <mxCell id="1770" value="" style="edgeStyle=none;rounded=1;jumpStyle=none;html=1;shadow=0;labelBackgroundColor=none;startArrow=none;startFill=0;endArrow=classic;endFill=1;jettySize=auto;orthogonalLoop=1;strokeColor=#DDA15E;strokeWidth=3;fontFamily=Courier New;fontSize=16;fontColor=default;spacing=5;fontStyle=1" parent="1" source="1764" target="1769" edge="1">
          <mxGeometry relative="1" as="geometry" />
        </mxCell>
        <mxCell id="1771" value="Types" style="rounded=1;whiteSpace=wrap;html=1;shadow=0;labelBackgroundColor=none;strokeColor=none;strokeWidth=3;fillColor=#BC6C25;fontFamily=Courier New;fontSize=16;fontColor=#FEFAE0;align=center;spacing=5;fontStyle=1;arcSize=7;perimeterSpacing=2;" parent="1" vertex="1">
          <mxGeometry x="720" y="400" width="120" height="40" as="geometry" />
        </mxCell>
        <mxCell id="1773" value="" style="edgeStyle=none;rounded=1;jumpStyle=none;html=1;shadow=0;labelBackgroundColor=none;startArrow=none;startFill=0;jettySize=auto;orthogonalLoop=1;strokeColor=#DDA15E;strokeWidth=3;fontFamily=Courier New;fontSize=16;fontColor=default;spacing=5;fontStyle=1;fillColor=#BC6C25;" parent="1" source="1771" edge="1">
          <mxGeometry relative="1" as="geometry">
            <mxPoint x="909.5539033457248" y="522.4999999999998" as="targetPoint" />
          </mxGeometry>
        </mxCell>
        <mxCell id="1775" value="" style="edgeStyle=none;rounded=1;jumpStyle=none;html=1;shadow=0;labelBackgroundColor=none;startArrow=none;startFill=0;jettySize=auto;orthogonalLoop=1;strokeColor=#DDA15E;strokeWidth=3;fontFamily=Courier New;fontSize=16;fontColor=default;spacing=5;fontStyle=1;fillColor=#BC6C25;" parent="1" source="1771" edge="1">
          <mxGeometry relative="1" as="geometry">
            <mxPoint x="1002.9999999999995" y="453.0783333333334" as="targetPoint" />
          </mxGeometry>
        </mxCell>
        <mxCell id="1777" value="" style="edgeStyle=none;rounded=1;jumpStyle=none;html=1;shadow=0;labelBackgroundColor=none;startArrow=none;startFill=0;jettySize=auto;orthogonalLoop=1;strokeColor=#DDA15E;strokeWidth=3;fontFamily=Courier New;fontSize=16;fontColor=default;spacing=5;fontStyle=1;fillColor=#BC6C25;" parent="1" source="1771" edge="1">
          <mxGeometry relative="1" as="geometry">
            <mxPoint x="1002.9999999999995" y="371.3116666666667" as="targetPoint" />
          </mxGeometry>
        </mxCell>
        <mxCell id="1779" value="" style="edgeStyle=none;rounded=1;jumpStyle=none;html=1;shadow=0;labelBackgroundColor=none;startArrow=none;startFill=0;jettySize=auto;orthogonalLoop=1;strokeColor=#DDA15E;strokeWidth=3;fontFamily=Courier New;fontSize=16;fontColor=default;spacing=5;fontStyle=1;fillColor=#BC6C25;" parent="1" source="1771" edge="1">
          <mxGeometry relative="1" as="geometry">
            <mxPoint x="912.6116838487969" y="306.5" as="targetPoint" />
          </mxGeometry>
        </mxCell>
        <mxCell id="BuEvshFohfWNwcxQu9Q5-1785" value="" style="edgeStyle=none;rounded=1;jumpStyle=none;html=1;shadow=0;labelBackgroundColor=none;startArrow=none;startFill=0;endArrow=classic;endFill=1;jettySize=auto;orthogonalLoop=1;strokeColor=#DDA15E;strokeWidth=3;fontFamily=Courier New;fontSize=16;fontColor=default;spacing=5;fontStyle=1;exitX=0.5;exitY=0;exitDx=0;exitDy=0;entryX=0.5;entryY=1;entryDx=0;entryDy=0;" edge="1" parent="1" source="1749" target="BuEvshFohfWNwcxQu9Q5-1786">
          <mxGeometry relative="1" as="geometry">
            <mxPoint x="645" y="267.9999999999999" as="sourcePoint" />
            <mxPoint x="665" y="190" as="targetPoint" />
          </mxGeometry>
        </mxCell>
        <mxCell id="BuEvshFohfWNwcxQu9Q5-1786" value="Environment" style="rounded=1;whiteSpace=wrap;html=1;shadow=0;labelBackgroundColor=none;strokeColor=none;strokeWidth=3;fillColor=#BC6C25;fontFamily=Courier New;fontSize=16;fontColor=#FEFAE0;align=center;spacing=5;fontStyle=1;arcSize=7;perimeterSpacing=2;" vertex="1" parent="1">
          <mxGeometry x="520" y="280" width="120" height="39.5" as="geometry" />
        </mxCell>
        <mxCell id="BuEvshFohfWNwcxQu9Q5-1789" value="" style="edgeStyle=none;rounded=1;jumpStyle=none;html=1;shadow=0;labelBackgroundColor=none;startArrow=none;startFill=0;endArrow=classic;endFill=1;jettySize=auto;orthogonalLoop=1;strokeColor=#DDA15E;strokeWidth=3;fontFamily=Courier New;fontSize=16;fontColor=default;spacing=5;fontStyle=1;exitX=0.75;exitY=0;exitDx=0;exitDy=0;entryX=0.5;entryY=1;entryDx=0;entryDy=0;" edge="1" parent="1" source="BuEvshFohfWNwcxQu9Q5-1786" target="BuEvshFohfWNwcxQu9Q5-1790">
          <mxGeometry relative="1" as="geometry">
            <mxPoint x="669" y="216" as="sourcePoint" />
            <mxPoint x="640" y="260" as="targetPoint" />
          </mxGeometry>
        </mxCell>
        <mxCell id="BuEvshFohfWNwcxQu9Q5-1790" value="IDE" style="rounded=1;whiteSpace=wrap;html=1;shadow=0;labelBackgroundColor=none;strokeColor=none;strokeWidth=3;fillColor=#BC6C25;fontFamily=Courier New;fontSize=16;fontColor=#FEFAE0;align=center;spacing=5;fontStyle=1;arcSize=7;perimeterSpacing=2;" vertex="1" parent="1">
          <mxGeometry x="780" y="200" width="120" height="39.5" as="geometry" />
        </mxCell>
        <mxCell id="BuEvshFohfWNwcxQu9Q5-1791" value="VS Code" style="rounded=1;whiteSpace=wrap;html=1;shadow=0;labelBackgroundColor=none;strokeColor=none;strokeWidth=3;fillColor=#BC6C25;fontFamily=Courier New;fontSize=16;fontColor=#FEFAE0;align=center;spacing=5;arcSize=7;perimeterSpacing=2;fontStyle=1" vertex="1" parent="1">
          <mxGeometry x="920" y="120" width="120" height="40.5" as="geometry" />
        </mxCell>
        <mxCell id="BuEvshFohfWNwcxQu9Q5-1792" value="" style="edgeStyle=none;rounded=1;jumpStyle=none;html=1;shadow=0;labelBackgroundColor=none;startArrow=none;startFill=0;endArrow=classic;endFill=1;jettySize=auto;orthogonalLoop=1;strokeColor=#DDA15E;strokeWidth=3;fontFamily=Courier New;fontSize=16;fontColor=default;spacing=5;fontStyle=1;exitX=0.75;exitY=0;exitDx=0;exitDy=0;" edge="1" parent="1" target="BuEvshFohfWNwcxQu9Q5-1791" source="BuEvshFohfWNwcxQu9Q5-1790">
          <mxGeometry relative="1" as="geometry">
            <mxPoint x="900" y="150" as="sourcePoint" />
          </mxGeometry>
        </mxCell>
        <mxCell id="BuEvshFohfWNwcxQu9Q5-1793" value="Android Studio" style="rounded=1;whiteSpace=wrap;html=1;shadow=0;labelBackgroundColor=none;strokeColor=none;strokeWidth=3;fillColor=#BC6C25;fontFamily=Courier New;fontSize=16;fontColor=#FEFAE0;align=center;spacing=5;arcSize=7;perimeterSpacing=2;fontStyle=1" vertex="1" parent="1">
          <mxGeometry x="780" y="80" width="120" height="40" as="geometry" />
        </mxCell>
        <mxCell id="BuEvshFohfWNwcxQu9Q5-1794" value="" style="edgeStyle=none;rounded=1;jumpStyle=none;html=1;shadow=0;labelBackgroundColor=none;startArrow=none;startFill=0;endArrow=classic;endFill=1;jettySize=auto;orthogonalLoop=1;strokeColor=#DDA15E;strokeWidth=3;fontFamily=Courier New;fontSize=16;fontColor=default;spacing=5;fontStyle=1;exitX=0.5;exitY=0;exitDx=0;exitDy=0;" edge="1" parent="1" target="BuEvshFohfWNwcxQu9Q5-1793" source="BuEvshFohfWNwcxQu9Q5-1790">
          <mxGeometry relative="1" as="geometry">
            <mxPoint x="860" y="160" as="sourcePoint" />
          </mxGeometry>
        </mxCell>
        <mxCell id="BuEvshFohfWNwcxQu9Q5-1795" value="" style="edgeStyle=none;rounded=1;jumpStyle=none;html=1;shadow=0;labelBackgroundColor=none;startArrow=none;startFill=0;endArrow=classic;endFill=1;jettySize=auto;orthogonalLoop=1;strokeColor=#DDA15E;strokeWidth=3;fontFamily=Courier New;fontSize=16;fontColor=default;spacing=5;fontStyle=1;entryX=0.5;entryY=1;entryDx=0;entryDy=0;exitX=0.25;exitY=0;exitDx=0;exitDy=0;" edge="1" parent="1" source="BuEvshFohfWNwcxQu9Q5-1790" target="BuEvshFohfWNwcxQu9Q5-1796">
          <mxGeometry relative="1" as="geometry">
            <mxPoint x="780" y="160" as="sourcePoint" />
            <mxPoint x="720" y="153" as="targetPoint" />
          </mxGeometry>
        </mxCell>
        <mxCell id="BuEvshFohfWNwcxQu9Q5-1796" value="IntelliJ IDEA" style="rounded=1;whiteSpace=wrap;html=1;shadow=0;labelBackgroundColor=none;strokeColor=none;strokeWidth=3;fillColor=#BC6C25;fontFamily=Courier New;fontSize=16;fontColor=#FEFAE0;align=center;spacing=5;arcSize=7;perimeterSpacing=2;fontStyle=1" vertex="1" parent="1">
          <mxGeometry x="640" y="120" width="120" height="40.5" as="geometry" />
        </mxCell>
        <mxCell id="BuEvshFohfWNwcxQu9Q5-1799" value="Language" style="rounded=1;whiteSpace=wrap;html=1;shadow=0;labelBackgroundColor=none;strokeColor=none;strokeWidth=3;fillColor=#BC6C25;fontFamily=Courier New;fontSize=16;fontColor=#FEFAE0;align=center;spacing=5;fontStyle=1;arcSize=7;perimeterSpacing=2;" vertex="1" parent="1">
          <mxGeometry x="520" y="520" width="120" height="39.5" as="geometry" />
        </mxCell>
      </root>
    </mxGraphModel>
  </diagram>
</mxfile>
